<?xml version="1.0" encoding="UTF-8" standalone="no"?><!-- Generator: Gravit.io --><svg xmlns="http://www.w3.org/2000/svg" xmlns:xlink="http://www.w3.org/1999/xlink" style="isolation:isolate" viewBox="1109 44.462 202 90.879" width="202pt" height="90.879pt"><defs><clipPath id="_clipPath_dEu9s0xykE6ThcioOyvPLPCyUy5M3mzE"><rect x="1109" y="44.462" width="202" height="90.879"/></clipPath></defs><g clip-path="url(#_clipPath_dEu9s0xykE6ThcioOyvPLPCyUy5M3mzE)"><path d=" M 1142 129 C 1113.64 119.972 1109 104.719 1109 90 C 1109 77.582 1113.737 64.084 1134 53 C 1155.272 41.364 1182.069 45 1210 45 C 1237 45 1268.638 45.099 1286 54 C 1306.267 62.232 1311 76.83 1311 90 C 1311 101.135 1304.06 116.14 1289 124 C 1271.294 134.819 1241.587 136.157 1210 135 C 1187.368 134.171 1162.427 135.503 1142 129 Z " fill="rgb(0,205,54)"/><g style="isolation:isolate"><path d=" M 1117.71 100.94 C 1116.397 97.237 1116 93.412 1116 89.629 C 1116 79.097 1120.409 67.648 1139.267 58.248 C 1147.558 54.116 1156.749 52.255 1166.538 51.475 L 1117.71 100.94 L 1117.71 100.94 Z " fill="rgb(204,249,184)"/><path d=" M 1117.71 100.94 C 1120.14 108 1125.828 114.627 1138.17 119.722 L 1138.17 119.722 L 1205.593 51.42 C 1192.025 51.273 1178.812 50.522 1166.538 51.475 L 1117.71 100.94 L 1117.71 100.94 Z " fill="rgb(221,252,208)"/><path d=" M 1138.17 119.722 C 1140.696 120.792 1143.545 121.786 1146.713 122.705 C 1155.478 125.248 1165.137 126.379 1175.072 126.913 L 1175.072 126.913 L 1248.558 52.468 C 1236.109 51.484 1222.519 51.463 1210 51.463 C 1208.526 51.463 1207.055 51.453 1205.593 51.42 L 1138.17 119.722 L 1138.17 119.722 Z " fill="rgb(204,249,184)"/><path d=" M 1175.072 126.913 C 1186.672 127.569 1198.648 127.415 1210 127.794 C 1215.042 127.962 1220.032 128.068 1224.921 128.079 L 1224.921 128.079 L 1289.093 63.07 C 1286.694 61.61 1283.92 60.276 1280.733 59.096 C 1272.624 55.308 1261.169 53.4 1248.558 52.468 L 1175.072 126.913 L 1175.072 126.913 Z " fill="rgb(221,252,208)"/><path d=" M 1224.921 128.079 C 1248.553 128.15 1269.872 126.067 1283.525 118.465 C 1297.541 111.798 1304 99.072 1304 89.629 C 1304 80.346 1300.958 70.228 1289.093 63.07 L 1224.921 128.079 L 1224.921 128.079 Z " fill="rgb(204,249,184)"/></g><g style="isolation:isolate"/><g style="isolation:isolate"><path d=" M 1146 92 C 1145.668 84.707 1150.322 80.139 1157 77 C 1161.45 74.908 1165 74.75 1171 75 C 1175.259 75.177 1180.257 75.466 1184 77 C 1188.531 78.857 1191.59 82.132 1194 84 C 1196.669 82.375 1201.021 73.51 1206 79 C 1202.505 83.171 1201.941 86.889 1202 90 C 1201.781 93.544 1206.405 104.094 1206 104 C 1202.334 108.217 1194.797 99.01 1194 95 C 1193.906 94.528 1191 98.625 1187 103 C 1182.557 106.9 1175.098 109 1171 109 C 1159.962 109 1146.426 101.376 1146 92 Z " fill="rgb(2,203,56)"/><circle vector-effect="non-scaling-stroke" cx="1159.729767600211" cy="85.27023239978877" r="4.270232399788711" fill="rgb(221,252,208)"/></g></g></svg>