<?xml version="1.0" encoding="UTF-8" standalone="no"?><!-- Generator: Gravit.io --><svg xmlns="http://www.w3.org/2000/svg" xmlns:xlink="http://www.w3.org/1999/xlink" style="isolation:isolate" viewBox="24.327 62 113.352 147" width="113.352pt" height="147pt"><defs><clipPath id="_clipPath_pu3RRf5bPV1qbnAus7JqZcqW0kMfEYXF"><rect x="24.327" y="62" width="113.352" height="147"/></clipPath></defs><g clip-path="url(#_clipPath_pu3RRf5bPV1qbnAus7JqZcqW0kMfEYXF)"><path d=" M 24.711 186.405 C 22.461 183.383 30.718 182.355 33.305 184.155 C 37.368 186.477 42.151 191.35 43.711 194.155 C 47.393 200.772 54.09 202.136 63.711 198.155 Q 64.508 204.899 63.711 208.155 C 56.235 209.792 43.906 209.011 41.711 206.155 C 35.99 198.711 32.057 187.038 24.711 186.405 Z " fill="rgb(32,31,31)"/><g><path d=" M 83.905 104.389 C 67.483 106.467 55.77 113.194 48.7 124.506 L 57.322 86.428 C 60.084 73.54 63.073 65.404 66.268 62 C 69.953 66.142 73.684 74.292 77.438 86.428 L 83.905 104.389 Z " fill="rgb(32,31,31)"/><path d=" M 95.4 104.389 C 111.821 106.467 123.535 113.194 130.604 124.506 L 121.983 86.428 C 119.221 73.54 116.231 65.404 113.037 62 C 109.352 66.142 105.621 74.292 101.866 86.428 L 95.4 104.389 Z " fill="rgb(32,31,31)"/><path d=" M 41.967 142.108 C 44.395 120.589 63.369 102.952 89.731 102.952 C 116.092 102.952 135.277 120.574 137.494 142.108 C 139.897 165.439 118.579 179.064 89.731 179.109 C 60.811 179.153 39.345 165.349 41.967 142.108 Z " fill="rgb(32,31,31)"/></g><path d=" M 120.569 209 C 120.581 208.502 120.587 208.002 120.587 207.5 C 120.587 184.596 107.369 166 91.087 166 C 74.806 166 61.587 184.596 61.587 207.5 C 61.587 208.002 61.593 208.502 61.605 209 L 120.569 209 L 120.569 209 Z " fill="rgb(32,31,31)"/><ellipse vector-effect="non-scaling-stroke" cx="35.75058501510789" cy="189.25000000000003" rx="1.5" ry="1.25" fill="rgb(235,235,235)"/><ellipse vector-effect="non-scaling-stroke" cx="38.75058501510789" cy="193.25" rx="1.5" ry="1.25" fill="rgb(235,235,235)"/><ellipse vector-effect="non-scaling-stroke" cx="41.75058501510789" cy="196.90479846798166" rx="1.5" ry="1.25" fill="rgb(235,235,235)"/></g></svg>