<?xml version="1.0" encoding="UTF-8" standalone="no"?><!-- Generator: Gravit.io --><svg xmlns="http://www.w3.org/2000/svg" xmlns:xlink="http://www.w3.org/1999/xlink" style="isolation:isolate" viewBox="32 87.535 116.465 116.465" width="116.465pt" height="116.465pt"><defs><clipPath id="_clipPath_HZHNOumRlrkD4tgbBtAv20DRVXj3uuKx"><rect x="32" y="87.535" width="116.465" height="116.465"/></clipPath></defs><g clip-path="url(#_clipPath_HZHNOumRlrkD4tgbBtAv20DRVXj3uuKx)"><path d=" M 125.172 87.535 L 55.293 87.535 C 42.449 87.535 32 97.984 32 110.828 L 32 180.707 C 32 193.551 42.449 204 55.293 204 L 125.172 204 C 138.016 204 148.465 193.551 148.465 180.707 L 148.465 110.828 C 148.465 97.984 138.016 87.535 125.172 87.535 Z  M 69.269 168.828 L 69.269 185.366 L 50.634 185.366 L 50.634 131.792 L 69.269 131.792 L 69.269 168.828 Z  M 59.952 125.969 C 54.361 125.969 50.634 122.009 50.634 117.117 C 50.634 112.226 54.361 108.499 59.952 108.499 C 65.542 108.499 69.036 112.226 69.269 117.117 C 69.269 122.009 65.775 125.969 59.952 125.969 Z  M 129.83 185.366 L 111.196 185.366 L 111.196 155.085 C 111.196 152.988 110.963 145.768 103.044 145.768 C 96.056 145.768 94.891 152.523 94.891 155.085 L 94.891 185.366 L 76.257 185.366 L 76.257 131.792 L 94.891 131.792 L 94.891 139.013 C 94.891 139.013 98.618 131.792 109.566 131.792 C 120.746 131.792 129.83 139.479 129.83 155.085 L 129.83 185.366 Z " fill="rgb(140,209,210)"/></g></svg>