<?xml version="1.0" encoding="UTF-8" standalone="no"?><!-- Generator: Gravit.io --><svg xmlns="http://www.w3.org/2000/svg" xmlns:xlink="http://www.w3.org/1999/xlink" style="isolation:isolate" viewBox="8.306 19.963 162.072 183.914" width="162.072pt" height="183.914pt"><defs><clipPath id="_clipPath_A6w9UClnVbkWQ1PGoVuTRveEru0qdl8g"><rect x="8.306" y="19.963" width="162.072" height="183.914"/></clipPath></defs><g clip-path="url(#_clipPath_A6w9UClnVbkWQ1PGoVuTRveEru0qdl8g)"><g><rect x="140.866" y="48" width="19.245" height="56.13" transform="matrix(1,0,0,1,0,0)" fill="rgb(75,222,254)"/><rect x="68.86" y="138.927" width="40.32" height="64.951" transform="matrix(1,0,0,1,0,0)" fill="rgb(224,35,35)"/><path d=" M 169.063 143.553 C 169.137 142.023 169.166 140.479 169.166 138.927 C 174.717 83.49 138.898 39.213 89.211 40.098 C 37.755 36.14 1.935 80.43 9.255 138.927 C 9.255 140.479 9.284 142.023 9.358 143.553 C 67.124 153.518 120.369 153.528 169.063 143.553 L 169.063 143.553 Z " fill="rgb(224,35,35)"/><circle vector-effect="non-scaling-stroke" cx="85.53804466085828" cy="81.43478995929877" r="10.267891108110902" fill="rgb(235,235,235)"/><circle vector-effect="non-scaling-stroke" cx="150.4885623704821" cy="39.8524021294663" r="19.889138709573615" fill="rgb(75,222,254)"/></g></g></svg>