<?xml version="1.0" encoding="UTF-8" standalone="no"?><!-- Generator: Gravit.io --><svg xmlns="http://www.w3.org/2000/svg" xmlns:xlink="http://www.w3.org/1999/xlink" style="isolation:isolate" viewBox="24.612 60.637 156.863 156.863" width="156.863pt" height="156.863pt"><defs><clipPath id="_clipPath_DPy2V4aL2bDucoulcRQfU4NdlPjfNuWP"><rect x="24.612" y="60.637" width="156.863" height="156.863"/></clipPath></defs><g clip-path="url(#_clipPath_DPy2V4aL2bDucoulcRQfU4NdlPjfNuWP)"><circle vector-effect="non-scaling-stroke" cx="103.04350654414732" cy="139.0682599371734" r="78.43174006282658" fill="rgb(140,209,210)"/><circle vector-effect="non-scaling-stroke" cx="103.04350654414729" cy="139.06825993717337" r="72.19411675933964" fill="rgb(247,247,230)"/><g style="isolation:isolate"><path d=" M 66.554 166.802 C 66.554 161.435 88.225 150.04 92.005 143.664 C 93.214 145.796 102.32 133.786 103.575 118.212 C 102.203 106.18 98.412 93.423 103.575 90.446 C 114.627 86.489 122.515 98.659 124.399 106.643 C 126.015 115.409 121.815 128.584 118.215 134.409 C 117.545 135.252 117.195 137.701 117.941 138.386 C 118.441 138.752 119.747 137.854 120.552 137.504 C 123.666 132.797 126.789 126.774 129.026 120.526 C 132.315 109.959 132.95 102.016 135.968 102.016 C 138.986 102.016 147.537 109.834 147.537 122.84 C 147.358 136.169 131.857 152.38 131.34 152.919 C 138.34 150.548 145.815 136.959 150.776 135.797 C 162.209 138.245 148.606 162.277 142.909 166.802 C 132.1 175.388 126.674 183.105 103.575 182.999 C 83.144 182.905 66.554 173.187 66.554 166.802 Z " fill="rgb(140,209,210)"/><path d=" M 67.705 169.913 C 64.124 165.529 61.258 159.649 57.298 155.233 C 54.696 152.331 48.448 142.956 50.357 139.037 C 52.085 134.283 52.677 142.781 59.612 142.305 C 60.856 139.702 71.491 130.285 78.123 132.095 C 88.515 134.932 97.343 140.378 96.633 151.762 C 95.958 162.593 87.423 174.087 77.215 173.659 C 73.264 173.494 70.267 172.32 67.705 169.913 Z " fill="rgb(140,209,210)"/><ellipse vector-effect="non-scaling-stroke" cx="75.99999999999999" cy="144.01825619820443" rx="5" ry="4.981743801795574" fill="rgb(247,247,230)"/></g></g></svg>