<?xml version="1.0" encoding="UTF-8" standalone="no"?><!-- Generator: Gravit.io --><svg xmlns="http://www.w3.org/2000/svg" xmlns:xlink="http://www.w3.org/1999/xlink" style="isolation:isolate" viewBox="30 61.662 148.82 155.32" width="148.82pt" height="155.32pt"><defs><clipPath id="_clipPath_0MCyFV3BpUSZ5lfeNBY99woV8hMM8owV"><rect x="30" y="61.662" width="148.82" height="155.32"/></clipPath></defs><g clip-path="url(#_clipPath_0MCyFV3BpUSZ5lfeNBY99woV8hMM8owV)"><g style="isolation:isolate"><g><path d=" M 40.702 61.662 L 30 90.2 L 30 197.557 L 65.578 197.557 L 65.578 216.981 L 89.577 216.981 L 108.981 197.557 L 138.095 197.557 L 178.82 156.849 L 178.82 61.662 L 40.702 61.662 Z  M 162.647 149.023 L 143.233 168.424 L 104.41 168.424 L 84.999 187.835 L 84.999 168.424 L 59.117 168.424 L 59.117 77.838 L 162.647 77.832 L 162.647 149.023 Z " fill="rgb(79,112,195)"/><path d=" M 139.997 145.778 L 120.586 145.778 L 120.586 100.485 L 139.997 100.485 L 139.997 145.778 Z  M 107.645 145.778 L 88.234 145.778 L 88.234 100.485 L 107.645 100.485 L 107.645 145.778 Z " fill="rgb(82,115,197)"/></g></g></g></svg>