<?xml version="1.0" encoding="UTF-8" standalone="no"?><!-- Generator: Gravit.io --><svg xmlns="http://www.w3.org/2000/svg" xmlns:xlink="http://www.w3.org/1999/xlink" style="isolation:isolate" viewBox="632.181 268 102.8 106" width="102.8pt" height="106pt"><defs><clipPath id="_clipPath_PpT7nFH3a3Xgpyw4Ocq7oZBhU3S51HCK"><rect x="632.181" y="268" width="102.8" height="106"/></clipPath></defs><g clip-path="url(#_clipPath_PpT7nFH3a3Xgpyw4Ocq7oZBhU3S51HCK)"><g><g><path d=" M 632.181 353.261 C 632.181 341.311 643.66 331.376 655.348 328.722 C 671.237 325.114 690.024 333.125 690.097 351.818 C 690.161 368.515 671.293 376.166 655.348 373.47 C 642.968 371.377 632.181 365.212 632.181 353.261 Z " fill="rgb(252,171,17)"/><path d=" M 697.336 272.426 C 702.465 265.112 708.783 266.118 713.263 281.087 C 700.006 320.501 692.641 350.368 689.445 357.103 L 674.036 335.179 L 697.336 272.426 Z " fill="rgb(252,171,17)"/><path d=" M 716.159 336.002 Q 714.938 328.007 700.232 305.627 L 713.263 281.087 L 734.981 331.609 C 731.972 342.017 724.264 348.768 711.815 351.818 Q 717.379 343.996 716.159 336.002 Z " fill="rgb(252,171,17)"/></g></g></g></svg>