<?xml version="1.0" encoding="UTF-8" standalone="no"?><!-- Generator: Gravit.io --><svg xmlns="http://www.w3.org/2000/svg" xmlns:xlink="http://www.w3.org/1999/xlink" style="isolation:isolate" viewBox="24.612 87.535 156.863 116.465" width="156.863pt" height="116.465pt"><defs><clipPath id="_clipPath_tptqr3kZTXJ95NTabOyMX8GGmaOJPnji"><rect x="24.612" y="87.535" width="156.863" height="116.465"/></clipPath></defs><g clip-path="url(#_clipPath_tptqr3kZTXJ95NTabOyMX8GGmaOJPnji)"><path d=" M 177.108 107.553 C 175.652 99.546 168.737 93.722 160.73 91.903 C 148.72 89.355 126.518 87.535 102.498 87.535 C 78.477 87.535 55.912 89.355 43.901 91.903 C 35.894 93.722 28.979 99.182 27.523 107.553 C 26.068 116.651 24.612 129.39 24.612 145.768 C 24.612 162.145 26.068 174.884 27.887 183.983 C 29.343 191.99 36.258 197.813 44.265 199.633 C 57.004 202.18 78.841 204 102.862 204 C 126.882 204 148.72 202.18 161.458 199.633 C 169.465 197.813 176.38 192.354 177.836 183.983 C 179.292 174.884 181.111 161.782 181.475 145.768 C 180.747 129.39 178.928 116.651 177.108 107.553 Z  M 82.844 171.244 L 82.844 120.291 L 127.246 145.768 L 82.844 171.244 Z " fill="rgb(236,101,115)"/></g></svg>